<mxfile host="app.diagrams.net" modified="2020-05-27T09:33:13.058Z" agent="5.0 (Macintosh; Intel Mac OS X 10_15_4) AppleWebKit/537.36 (KHTML, like Gecko) Chrome/81.0.4044.138 Safari/537.36" etag="0O59ZITZuzzgyza1RJ-G" version="13.1.3" type="github">
  <diagram id="f3K2hPSnQYqGFehTGIju" name="Page-1">
    <mxGraphModel dx="1554" dy="994" grid="1" gridSize="10" guides="1" tooltips="1" connect="1" arrows="1" fold="1" page="1" pageScale="1" pageWidth="1169" pageHeight="1654" math="0" shadow="0">
      <root>
        <mxCell id="0" />
        <mxCell id="1" parent="0" />
        <mxCell id="2BJ5JsNziIlUgvsJIibd-1" value="Start" style="ellipse;whiteSpace=wrap;html=1;" parent="1" vertex="1">
          <mxGeometry x="160" y="40" width="120" height="80" as="geometry" />
        </mxCell>
        <mxCell id="2BJ5JsNziIlUgvsJIibd-2" value="Get active rides with group by user ids&amp;nbsp;" style="rounded=0;whiteSpace=wrap;html=1;" parent="1" vertex="1">
          <mxGeometry x="60" y="160" width="320" height="60" as="geometry" />
        </mxCell>
        <mxCell id="2BJ5JsNziIlUgvsJIibd-7" value="" style="edgeStyle=orthogonalEdgeStyle;rounded=0;orthogonalLoop=1;jettySize=auto;html=1;" parent="1" source="2BJ5JsNziIlUgvsJIibd-3" edge="1">
          <mxGeometry relative="1" as="geometry">
            <mxPoint x="220" y="440" as="targetPoint" />
          </mxGeometry>
        </mxCell>
        <mxCell id="2BJ5JsNziIlUgvsJIibd-3" value="Each per ride" style="shape=hexagon;perimeter=hexagonPerimeter2;whiteSpace=wrap;html=1;" parent="1" vertex="1">
          <mxGeometry x="137" y="280" width="166" height="80" as="geometry" />
        </mxCell>
        <mxCell id="2BJ5JsNziIlUgvsJIibd-4" value="" style="endArrow=classic;html=1;entryX=0.5;entryY=0;entryDx=0;entryDy=0;exitX=0.5;exitY=1;exitDx=0;exitDy=0;" parent="1" source="2BJ5JsNziIlUgvsJIibd-1" target="2BJ5JsNziIlUgvsJIibd-2" edge="1">
          <mxGeometry width="50" height="50" relative="1" as="geometry">
            <mxPoint x="210" y="160" as="sourcePoint" />
            <mxPoint x="260" y="110" as="targetPoint" />
          </mxGeometry>
        </mxCell>
        <mxCell id="2BJ5JsNziIlUgvsJIibd-5" value="" style="endArrow=classic;html=1;" parent="1" edge="1">
          <mxGeometry width="50" height="50" relative="1" as="geometry">
            <mxPoint x="220" y="220" as="sourcePoint" />
            <mxPoint x="220" y="277" as="targetPoint" />
          </mxGeometry>
        </mxCell>
        <mxCell id="2BJ5JsNziIlUgvsJIibd-11" value="" style="edgeStyle=orthogonalEdgeStyle;rounded=0;orthogonalLoop=1;jettySize=auto;html=1;" parent="1" source="2BJ5JsNziIlUgvsJIibd-9" edge="1">
          <mxGeometry relative="1" as="geometry">
            <mxPoint x="220" y="580" as="targetPoint" />
          </mxGeometry>
        </mxCell>
        <mxCell id="2BJ5JsNziIlUgvsJIibd-9" value="Calculate user rides amount" style="rounded=0;whiteSpace=wrap;html=1;" parent="1" vertex="1">
          <mxGeometry x="130" y="440" width="180" height="60" as="geometry" />
        </mxCell>
        <mxCell id="2BJ5JsNziIlUgvsJIibd-14" value="" style="edgeStyle=orthogonalEdgeStyle;rounded=0;orthogonalLoop=1;jettySize=auto;html=1;" parent="1" edge="1">
          <mxGeometry relative="1" as="geometry">
            <mxPoint x="220" y="640" as="sourcePoint" />
            <mxPoint x="220" y="720" as="targetPoint" />
          </mxGeometry>
        </mxCell>
        <mxCell id="2BJ5JsNziIlUgvsJIibd-39" style="edgeStyle=orthogonalEdgeStyle;rounded=0;orthogonalLoop=1;jettySize=auto;html=1;entryX=0.55;entryY=-0.05;entryDx=0;entryDy=0;entryPerimeter=0;" parent="1" source="2BJ5JsNziIlUgvsJIibd-15" target="2BJ5JsNziIlUgvsJIibd-17" edge="1">
          <mxGeometry relative="1" as="geometry" />
        </mxCell>
        <mxCell id="2BJ5JsNziIlUgvsJIibd-15" value="Close the users&amp;nbsp;all rides&amp;nbsp;" style="rounded=0;whiteSpace=wrap;html=1;" parent="1" vertex="1">
          <mxGeometry x="639" y="870" width="180" height="60" as="geometry" />
        </mxCell>
        <mxCell id="2BJ5JsNziIlUgvsJIibd-34" style="edgeStyle=orthogonalEdgeStyle;rounded=0;orthogonalLoop=1;jettySize=auto;html=1;entryX=1;entryY=0.5;entryDx=0;entryDy=0;" parent="1" source="2BJ5JsNziIlUgvsJIibd-17" target="2BJ5JsNziIlUgvsJIibd-21" edge="1">
          <mxGeometry relative="1" as="geometry" />
        </mxCell>
        <mxCell id="2BJ5JsNziIlUgvsJIibd-17" value="Decrease user balance" style="rounded=0;whiteSpace=wrap;html=1;" parent="1" vertex="1">
          <mxGeometry x="630" y="1150" width="180" height="60" as="geometry" />
        </mxCell>
        <mxCell id="2BJ5JsNziIlUgvsJIibd-21" value="finish" style="ellipse;whiteSpace=wrap;html=1;" parent="1" vertex="1">
          <mxGeometry x="160" y="1140" width="120" height="80" as="geometry" />
        </mxCell>
        <mxCell id="2BJ5JsNziIlUgvsJIibd-26" value="" style="edgeStyle=orthogonalEdgeStyle;rounded=0;orthogonalLoop=1;jettySize=auto;html=1;" parent="1" source="2BJ5JsNziIlUgvsJIibd-24" edge="1">
          <mxGeometry relative="1" as="geometry">
            <mxPoint x="220" y="860" as="targetPoint" />
          </mxGeometry>
        </mxCell>
        <mxCell id="2BJ5JsNziIlUgvsJIibd-24" value="Try make payment for increase balance" style="rounded=0;whiteSpace=wrap;html=1;" parent="1" vertex="1">
          <mxGeometry x="65" y="720" width="310" height="60" as="geometry" />
        </mxCell>
        <mxCell id="2BJ5JsNziIlUgvsJIibd-31" value="" style="edgeStyle=orthogonalEdgeStyle;rounded=0;orthogonalLoop=1;jettySize=auto;html=1;" parent="1" edge="1">
          <mxGeometry relative="1" as="geometry">
            <mxPoint x="310" y="900" as="sourcePoint" />
            <mxPoint x="434" y="900" as="targetPoint" />
          </mxGeometry>
        </mxCell>
        <mxCell id="2BJ5JsNziIlUgvsJIibd-33" value="" style="edgeStyle=orthogonalEdgeStyle;rounded=0;orthogonalLoop=1;jettySize=auto;html=1;" parent="1" edge="1">
          <mxGeometry relative="1" as="geometry">
            <mxPoint x="510" y="900" as="sourcePoint" />
            <mxPoint x="634" y="900" as="targetPoint" />
          </mxGeometry>
        </mxCell>
        <mxCell id="2BJ5JsNziIlUgvsJIibd-35" value="&lt;span&gt;if User rides amount is higher than user balance&amp;nbsp;&lt;/span&gt;" style="rhombus;whiteSpace=wrap;html=1;" parent="1" vertex="1">
          <mxGeometry x="30" y="580" width="380" height="80" as="geometry" />
        </mxCell>
        <mxCell id="2BJ5JsNziIlUgvsJIibd-41" style="edgeStyle=orthogonalEdgeStyle;rounded=0;orthogonalLoop=1;jettySize=auto;html=1;entryX=0.5;entryY=0;entryDx=0;entryDy=0;" parent="1" source="2BJ5JsNziIlUgvsJIibd-36" target="2BJ5JsNziIlUgvsJIibd-40" edge="1">
          <mxGeometry relative="1" as="geometry" />
        </mxCell>
        <mxCell id="2BJ5JsNziIlUgvsJIibd-36" value="&lt;span&gt;if payment success&lt;/span&gt;" style="rhombus;whiteSpace=wrap;html=1;" parent="1" vertex="1">
          <mxGeometry x="130" y="860" width="180" height="80" as="geometry" />
        </mxCell>
        <mxCell id="2BJ5JsNziIlUgvsJIibd-38" value="else" style="rhombus;whiteSpace=wrap;html=1;" parent="1" vertex="1">
          <mxGeometry x="430" y="860" width="80" height="80" as="geometry" />
        </mxCell>
        <mxCell id="2BJ5JsNziIlUgvsJIibd-42" style="edgeStyle=orthogonalEdgeStyle;rounded=0;orthogonalLoop=1;jettySize=auto;html=1;entryX=0.5;entryY=0;entryDx=0;entryDy=0;" parent="1" source="2BJ5JsNziIlUgvsJIibd-40" target="2BJ5JsNziIlUgvsJIibd-21" edge="1">
          <mxGeometry relative="1" as="geometry" />
        </mxCell>
        <mxCell id="2BJ5JsNziIlUgvsJIibd-40" value="Increase user balance" style="rounded=0;whiteSpace=wrap;html=1;" parent="1" vertex="1">
          <mxGeometry x="140" y="1000" width="160" height="60" as="geometry" />
        </mxCell>
      </root>
    </mxGraphModel>
  </diagram>
</mxfile>
